<?xml version="1.0" standalone="no"?>
<!DOCTYPE svg PUBLIC "-//W3C//DTD SVG 20010904//EN"
 "http://www.w3.org/TR/2001/REC-SVG-20010904/DTD/svg10.dtd">
<svg version="1.0" xmlns="http://www.w3.org/2000/svg"
 width="500.000000pt" height="500.000000pt" viewBox="0 0 500.000000 500.000000"
 preserveAspectRatio="xMidYMid meet">
<metadata>
Created by potrace 1.11, written by Peter Selinger 2001-2013
</metadata>
<g transform="translate(0.000000,500.000000) scale(0.100000,-0.100000)"
fill="#000000" stroke="none">
<path d="M3370 4516 c-112 -31 -194 -82 -305 -188 l-72 -68 -74 34 c-193 88
-368 121 -599 112 -318 -13 -542 -88 -701 -234 -174 -161 -259 -381 -259 -674
0 -261 63 -437 214 -596 71 -74 202 -165 257 -177 26 -6 42 -25 21 -25 -24 0
-225 -146 -285 -206 -237 -239 -178 -552 134 -713 l75 -38 -104 -17 c-358 -59
-539 -228 -559 -521 -12 -189 42 -340 167 -465 124 -125 301 -200 578 -247
153 -26 696 -26 857 0 369 58 600 159 780 341 76 76 99 106 138 186 74 150
104 308 94 483 -13 208 -67 339 -191 462 -88 88 -166 135 -297 179 -159 53
-219 59 -714 65 l-461 6 -48 25 c-120 62 -113 208 16 325 l54 50 260 0 c232 1
270 3 364 24 332 72 556 254 651 528 26 76 49 220 49 309 0 193 -76 422 -194
582 -25 34 -46 64 -46 66 0 2 24 14 53 26 65 28 139 30 191 5 47 -23 93 -90
102 -151 l6 -43 47 5 c132 15 216 54 261 122 33 50 44 106 38 192 -8 108 -89
199 -211 235 -61 18 -223 19 -287 1z m-891 -422 c112 -33 195 -155 227 -334
23 -125 23 -422 1 -530 -33 -163 -84 -247 -179 -294 -43 -22 -66 -26 -133 -26
-106 0 -163 20 -220 76 -50 50 -87 120 -112 214 -26 95 -26 481 0 593 59 251
212 362 416 301z m474 -2572 c130 -44 185 -136 174 -292 -20 -287 -247 -438
-692 -458 -281 -14 -459 14 -574 88 -65 42 -100 83 -133 156 -19 41 -22 66
-23 159 0 97 3 116 26 165 34 73 76 120 138 154 96 52 137 55 596 53 407 -3
422 -3 488 -25z"/>
</g>
</svg>
